<?xml version="1.0" encoding="UTF-8"?>
<!--
Pisko Lab Logo (Website, dark variant)
SPDX-License-Identifier: CC-BY-SA-4.0
Copyright (C) 2024 Thaynan Silva <thaynan.mdsilva@gmail.com>
-->
<svg version="1.1" xmlns="http://www.w3.org/2000/svg" viewBox="0 0 200 48" width="200" height="48">
  <style>
    text.pretty {
      font-family: 'Fira Sans', 'Noto Sans', sans-serif;
      user-select: none;
      font-size: 24.5pt;
      font-weight: bold;
    }
  </style>
  <defs>
    <linearGradient id="fluid" x1="0" y1="0" x2="100%" y2="100%">
      <stop stop-color="#ff4" offset="10%"/>
      <stop stop-color="#f4f" offset="50%"/>
      <stop stop-color="#4ff" offset="100%"/>
    </linearGradient>
    <radialGradient id="bubble" cx="40%" cy="10%">
      <stop stop-color="#fffa" offset="10%"/>
      <stop stop-color="#fee4" offset="90%"/>
      <stop stop-color="#fff3" offset="100%"/>
    </radialGradient>
  </defs>
  <path d="M24 9l-1.5-1.5 0-1.5 9 0 0 1.5-1.5 1.5 0 13.5c10.5 3 10.5 16.5 0 19.5l-6 0c-10.5-3-10.5-16.5 0-19.5z" stroke="#fee8" stroke-width="2" fill="url(#fluid)"/>
  <g fill="url(#bubble)" stroke="#fff1" stroke-width="0.2">
    <circle cx="20" cy="30" r="0.6"/>
    <circle cx="18" cy="28" r="0.3"/>
    <circle cx="23" cy="32" r="0.7"/>
    <circle cx="25" cy="30" r="0.5"/>
    <circle cx="23" cy="28" r="0.4"/>
    <circle cx="28" cy="30" r="0.3"/>
    <circle cx="28" cy="33" r="0.4"/>
    <circle cx="31" cy="34" r="0.3"/>
    <circle cx="25" cy="26" r="0.3"/>
    <circle cx="24" cy="23" r="0.3"/>
    <circle cx="25" cy="22" r="0.2"/>
    <circle cx="23" cy="19" r="0.2"/>
    <circle cx="25" cy="36" r="0.7"/>
    <circle cx="18" cy="35" r="0.7"/>
    <circle cx="21" cy="33" r="0.2"/>
    <circle cx="28" cy="39" r="0.9"/>
    <circle cx="22" cy="38" r="0.8"/>
  </g>
  <text x="48" y="37" class="pretty" fill="currentColor">Pisko Lab</text>
</svg>
